<svg width="498" height="498" viewBox="0 0 498 498" fill="none" xmlns="http://www.w3.org/2000/svg">
<rect width="498" height="498" fill="white"/>
<path fill-rule="evenodd" clip-rule="evenodd" d="M248.688 7.377C381.871 7.377 490 115.506 490 248.689C490 381.872 381.871 490 248.688 490C115.505 490 7.37701 381.872 7.37701 248.689C7.37701 115.506 115.505 7.377 248.688 7.377Z" fill="white"/>
<path d="M357.624 424.379C357.578 424.673 357.381 422.47 358.199 421.039" stroke="#013DFD" stroke-width="4.0327" stroke-linecap="round" stroke-linejoin="round"/>
<path d="M324.391 448.231L330.047 462.089" stroke="#013DFD" stroke-width="4.0327" stroke-linecap="round" stroke-linejoin="round"/>
<path d="M324.835 447.95C324.822 447.899 330.834 444.874 331.108 444.874" stroke="#013DFD" stroke-width="4.0327" stroke-linecap="round" stroke-linejoin="round"/>
<path d="M360.674 429.623C360.674 429.623 368.185 441.582 368.844 442.24" stroke="#013DFD" stroke-width="4.0327" stroke-linecap="round" stroke-linejoin="round"/>
<path d="M368.844 442.24C368.844 442.24 372.936 439.645 373.673 439.056" stroke="#013DFD" stroke-width="4.0327" stroke-linecap="round" stroke-linejoin="round"/>
<path d="M364.925 435.215C364.925 435.215 369.018 432.62 369.754 432.029" stroke="#013DFD" stroke-width="4.0327" stroke-linecap="round" stroke-linejoin="round"/>
<path d="M360.674 429.623C360.674 429.623 364.766 427.027 365.503 426.437" stroke="#013DFD" stroke-width="4.0327" stroke-linecap="round" stroke-linejoin="round"/>
<path d="M327.358 454.468C327.335 454.487 332.646 451.97 332.646 451.97" stroke="#013DFD" stroke-width="4.0327" stroke-linecap="round" stroke-linejoin="round"/>
<path d="M285.394 468.417C285.952 470.036 294.139 467.438 293.958 465.188" stroke="#013DFD" stroke-width="4.0327" stroke-linecap="round" stroke-linejoin="round"/>
<path d="M285.075 472.845C285.075 472.845 284.985 470.388 284.985 469.649C284.985 468.334 285.083 467.67 285.243 466.313C285.413 464.865 285.576 464.027 286.142 462.663C286.288 462.312 286.881 461.531 287.183 461.322C289.235 459.905 290.991 461.067 292.413 462.708C293.21 463.629 293.593 464.466 294.235 465.521C294.962 466.717 296.335 469.613 296.335 469.799" stroke="#013DFD" stroke-width="4.0327" stroke-linecap="round" stroke-linejoin="round"/>
<path d="M185.207 458.73C184.988 459.262 183.809 467.009 183.809 467.287" stroke="#013DFD" stroke-width="4.0327" stroke-linecap="round" stroke-linejoin="round"/>
<path d="M181.622 450.752C181.368 451.671 181.424 455.08 182.388 456.433C183.975 458.659 186.859 459.081 189.273 457.186C189.999 456.616 190.766 455.549 191.199 454.75C191.52 454.155 191.74 452.942 191.74 452.942" stroke="#013DFD" stroke-width="4.0327" stroke-linecap="round" stroke-linejoin="round"/>
<path d="M152.6 443.287C151.474 446.71 149.602 452.516 153.539 454.484C154.411 454.92 155.209 455.136 156.217 454.884C156.807 454.736 157.887 454.411 158.816 453.755C160.332 452.686 162.195 449.687 163.227 447.444" stroke="#013DFD" stroke-width="4.0327" stroke-linecap="round" stroke-linejoin="round"/>
<path d="M112.832 433.569C112.832 433.569 113.908 431.913 114.249 431.459C116.117 428.968 118.526 426.114 121.895 427.237C123.394 427.737 123.249 431.221 123.249 432.494C123.249 433.064 123.301 434.192 123.887 434.486C124.394 434.739 124.86 435.017 125.719 434.964C126.891 434.891 128.543 433.074 130.099 433.37C131.849 433.704 131.898 435.807 131.851 437.671C131.775 440.798 131.372 443.93 130.817 446.673" stroke="#013DFD" stroke-width="4.0327" stroke-linecap="round" stroke-linejoin="round"/>
<path d="M248.688 7.377C381.871 7.377 490 115.506 490 248.689C490 381.872 381.871 490 248.688 490C115.505 490 7.37701 381.872 7.37701 248.689C7.37701 115.506 115.505 7.377 248.688 7.377Z" stroke="#013DFD" stroke-width="4" stroke-linecap="round" stroke-linejoin="round"/>
<path d="M179.325 379.441L329.868 379.595" stroke="#013DFD" stroke-width="9.7561" stroke-linecap="round" stroke-linejoin="round"/>
<path fill-rule="evenodd" clip-rule="evenodd" d="M166.289 165.657H342.904V144.103H166.289V165.657Z" fill="#013DFD"/>
<path fill-rule="evenodd" clip-rule="evenodd" d="M344.877 144.103C344.877 143.014 343.993 142.13 342.904 142.13L166.289 142.143C165.206 142.143 164.329 143.02 164.329 144.103L164.33 165.657C164.33 166.739 165.207 167.616 166.289 167.616L342.904 167.631C343.993 167.631 344.877 166.748 344.877 165.657V144.103ZM340.93 146.076V163.684C322.853 163.686 186.264 163.697 168.248 163.698L168.25 146.064L340.93 146.076Z" fill="#013DFD"/>
<path d="M211.463 469.649C211.467 469.642 211.47 469.637 211.473 469.631" stroke="#013DFD" stroke-width="4.0327" stroke-linecap="round" stroke-linejoin="round"/>
<path d="M247.615 463.009C238.17 459.752 240.608 480.759 250.388 472.467" stroke="#013DFD" stroke-width="4.0327" stroke-linecap="round" stroke-linejoin="round"/>
<path d="M298.084 49.497C292.434 65.4997 264.467 169.639 262.059 172.047" stroke="#013DFD" stroke-width="14" stroke-linecap="round" stroke-linejoin="round"/>
<path d="M297.525 47.771C297.525 47.771 343.544 62.5374 344.325 62.5967" stroke="#013DFD" stroke-width="11.2805" stroke-linecap="round" stroke-linejoin="round"/>
<path fill-rule="evenodd" clip-rule="evenodd" d="M179.654 160.712L281.445 159.995V370.079L198.035 370.132L179.654 160.712Z" fill="#013DFD"/>
<path fill-rule="evenodd" clip-rule="evenodd" d="M179.653 160.569C179.612 160.569 179.572 160.586 179.544 160.615C179.516 160.645 179.502 160.685 179.507 160.725C179.511 160.725 197.89 370.145 197.89 370.145C197.897 370.22 197.959 370.278 198.035 370.278L281.445 370.226C281.526 370.226 281.592 370.16 281.592 370.079L281.594 159.995C281.594 159.955 281.578 159.917 281.55 159.889C281.522 159.862 281.484 159.846 281.444 159.847L179.653 160.563V160.569ZM179.812 160.861L281.297 160.144L281.299 369.932L198.169 369.986L179.812 160.861Z" fill="#013DFD"/>
<path fill-rule="evenodd" clip-rule="evenodd" d="M327.597 160.712L228.444 159.995V370.079L309.693 370.132L327.597 160.712Z" fill="#013DFD"/>
<path fill-rule="evenodd" clip-rule="evenodd" d="M327.74 160.725C327.743 160.684 327.73 160.643 327.703 160.612C327.676 160.582 327.638 160.563 327.598 160.563L228.445 159.846C228.405 159.846 228.367 159.862 228.339 159.889C228.311 159.917 228.295 159.955 228.295 159.995L228.297 370.079C228.297 370.16 228.363 370.226 228.443 370.226L309.692 370.278C309.769 370.278 309.831 370.219 309.838 370.144L327.74 160.725ZM327.439 160.861C326.891 167.276 310.06 364.125 309.558 369.986L228.59 369.932L228.591 160.145C232.867 160.175 327.439 160.861 327.439 160.861Z" fill="#013DFD"/>
<path fill-rule="evenodd" clip-rule="evenodd" d="M260.875 269.874L260.86 269.864C258.766 268.593 256.032 269.26 254.76 271.355C253.489 273.449 254.155 276.183 256.25 277.455L256.265 277.463C258.359 278.735 261.093 278.068 262.365 275.974C263.637 273.879 262.969 271.146 260.875 269.874Z" fill="white"/>
<path fill-rule="evenodd" clip-rule="evenodd" d="M209.626 296.727L209.661 296.773C211.394 298.505 214.208 298.505 215.94 296.773C217.309 295.405 217.596 293.362 216.802 291.71C217.048 291.515 216.524 291.132 216.249 290.83C216.208 290.762 216.159 290.696 216.103 290.637C215.769 290.095 215.146 289.581 213.372 288.962C210.974 288.457 208.617 289.994 208.112 292.392C207.76 294.061 208.398 295.71 209.626 296.727ZM210.582 297.331C210.812 297.479 211.111 297.617 211.54 297.652C211.202 297.581 210.882 297.473 210.582 297.331ZM216.103 290.637C216.057 290.583 216.002 290.535 215.94 290.493C216.056 290.608 216.164 290.729 216.263 290.853L216.249 290.83C216.199 290.777 216.158 290.726 216.13 290.68L216.103 290.637Z" fill="white"/>
<path fill-rule="evenodd" clip-rule="evenodd" d="M214.191 254.497C213.279 253.607 211.994 253.114 210.631 253.256C208.193 253.508 206.419 255.692 206.672 258.129C207.046 259.627 207.514 260.528 208.248 261.176C208.968 261.816 209.905 262.165 211.385 262.377C213.835 262.377 215.824 260.386 215.824 257.936C215.824 256.55 215.187 255.311 214.191 254.497ZM214.885 255.371C215.217 255.915 215.434 256.539 215.505 257.214C215.536 256.411 215.254 255.829 214.885 255.371ZM213.221 253.894C212.736 253.593 212.145 253.387 211.385 253.496C212.04 253.496 212.661 253.638 213.221 253.894Z" fill="white"/>
<path fill-rule="evenodd" clip-rule="evenodd" d="M188.508 181.566C188.508 181.566 193.506 185.432 198.665 188.189C201.858 189.895 205.148 191.111 207.621 191.243C210.568 191.4 213.393 190.805 216.134 189.728C220.408 188.047 224.474 185.086 228.574 182.714C231.687 180.912 234.779 179.337 238.232 180.199C245.474 182.006 251.506 187.423 258.932 190.445C262.424 191.866 266.172 192.839 270.358 192.963C273.334 193.051 275.82 192.499 278.034 191.562C281.373 190.149 284.041 187.761 286.913 185.309C289.578 183.033 292.505 180.678 297.267 180.029C299.502 179.718 301.841 180.547 304.092 181.672C308.502 183.877 312.531 187.427 315.055 189.617C316.905 191.223 319.712 191.026 321.318 189.175C322.925 187.325 322.727 184.518 320.876 182.911C317.939 180.362 313.198 176.297 308.064 173.73C304.127 171.761 299.953 170.69 296.043 171.233C293.387 171.61 291.111 172.327 289.096 173.255C285.547 174.89 282.839 177.19 280.266 179.422C277.498 181.825 275.034 184.3 270.621 184.167C267.555 184.073 264.815 183.33 262.257 182.287C254.434 179.094 248.004 173.542 240.375 171.632C237.259 170.85 234.278 171.031 231.373 171.843C226.894 173.096 222.595 176.03 218.248 178.684C214.99 180.672 211.735 182.59 208.095 182.392C206.626 182.314 204.746 181.384 202.848 180.367C198.325 177.946 193.947 174.546 193.947 174.546C192.01 173.046 189.219 173.4 187.718 175.337C186.217 177.275 186.572 180.065 188.508 181.566Z" fill="white"/>
<path fill-rule="evenodd" clip-rule="evenodd" d="M189.977 254.673L200.107 277.415C201.07 279.582 203.573 280.603 205.778 279.727L233.234 268.791C235.467 267.903 236.574 265.388 235.719 263.143L226.831 239.663C225.959 237.373 223.393 236.22 221.102 237.092C218.811 237.964 217.66 240.531 218.532 242.822L225.953 262.22L206.464 269.945L198.092 251.066C197.096 248.827 194.47 247.816 192.231 248.812C189.991 249.808 188.982 252.433 189.977 254.673Z" fill="white"/>
<path fill-rule="evenodd" clip-rule="evenodd" d="M219.931 284.465L233.851 315.993C234.841 318.235 237.464 319.251 239.706 318.262C241.948 317.272 242.965 314.648 241.975 312.406L228.054 280.878C227.064 278.636 224.44 277.62 222.198 278.609C219.957 279.599 218.941 282.223 219.931 284.465Z" fill="white"/>
<path fill-rule="evenodd" clip-rule="evenodd" d="M241.061 271.402L242.689 302.778C242.804 305.029 244.593 306.832 246.843 306.966L299.132 310.054C301.516 310.195 303.578 308.406 303.773 306.025L306.704 270.827C306.903 268.384 305.084 266.239 302.641 266.038C300.199 265.838 298.053 267.658 297.852 270.101L295.358 301.021L251.322 298.373L249.93 270.946C249.804 268.499 247.715 266.614 245.268 266.739C242.82 266.865 240.936 268.954 241.061 271.402Z" fill="white"/>
<path fill-rule="evenodd" clip-rule="evenodd" d="M278.314 304.486L280.899 270.803C281.087 268.36 279.255 266.224 276.812 266.037C274.368 265.849 272.232 267.68 272.045 270.123L269.46 303.806C269.272 306.25 271.104 308.386 273.547 308.573C275.991 308.761 278.127 306.929 278.314 304.486Z" fill="white"/>
</svg>
